<?xml version="1.0" encoding="utf-8"?>
<!-- Generator: Adobe Illustrator 19.0.0, SVG Export Plug-In . SVG Version: 6.00 Build 0)  -->
<svg version="1.1" id="Ebene_1" xmlns="http://www.w3.org/2000/svg" xmlns:xlink="http://www.w3.org/1999/xlink" x="0px" y="0px"
	 viewBox="0 0 128 128" style="enable-background:new 0 0 128 128;" xml:space="preserve">
<style type="text/css">
	.st0{fill:#FFD158;}
	.st1{fill:#ECC355;}
	.st2{fill:#CC8634;}
</style>
<g id="layer1" transform="translate(0,-1020.3622)">
	<g id="g41037" transform="translate(731.19243,120.01425)">
		<path id="path23888" class="st0" d="M-667.2,901.2c-9.9,0-18.1,7.7-18.9,17.5c-7.5-6.5-18.8-6.1-25.8,1c-7,7-7.4,18.2-0.9,25.7
			c-9.9,0.7-17.6,9-17.6,18.9c0,9.9,7.7,18.1,17.6,18.9c-6.5,7.5-6.1,18.7,0.9,25.8c7,7,18.2,7.4,25.7,0.9c0.7,9.9,9,17.6,18.9,17.6
			c9.9,0,18.1-7.7,18.9-17.5c7.5,6.5,18.7,6.1,25.8-1c7-7,7.4-18.2,0.9-25.7c9.9-0.7,17.6-9,17.6-18.9c0-9.9-7.7-18.2-17.6-18.9
			c6.5-7.5,6.1-18.7-0.9-25.8c-7-7-18.2-7.4-25.7-0.9C-649,908.9-657.3,901.2-667.2,901.2z"/>
		<path id="path41014" class="st1" d="M-646.2,966.8c0,11.6-9.4,21-21,21s-21-9.4-21-21c0-11.6,9.4-21,21-21
			S-646.2,955.2-646.2,966.8z"/>
		<path id="circle23905" class="st2" d="M-646.2,966.8c0,11.6-9.4,21-21,21c-11.6,0-21-9.4-21-21c0-11.6,9.4-21,21-21
			C-655.6,945.8-646.2,955.2-646.2,966.8z"/>
	</g>
</g>
<g id="XMLID_1_">
</g>
<g id="XMLID_2_">
</g>
<g id="XMLID_3_">
</g>
<g id="XMLID_4_">
</g>
<g id="XMLID_5_">
</g>
<g id="XMLID_6_">
</g>
<g id="XMLID_7_">
</g>
<g id="XMLID_8_">
</g>
<g id="XMLID_9_">
</g>
<g id="XMLID_10_">
</g>
<g id="XMLID_11_">
</g>
<g id="XMLID_12_">
</g>
<g id="XMLID_13_">
</g>
<g id="XMLID_14_">
</g>
<g id="XMLID_15_">
</g>
</svg>
